# xmcd
#
# Track frame offsets: 
#        150
#        11359
#        24232
#        36817
#        51457
#        68827
#        82217
#        99957
#        121086
#        143847
#        165666
#        187308
#        206839
#        220297
#        237694
#
# Disc length: 3356 seconds
#
# Revision: 6
# Processed by: cddbd v1.5.2PL0 Copyright (c) Steve Scherf et al.
# Submitted via: ExactAudioCopy v0.99pb5
#
DISCID=d90d1a0f
DTITLE=Various Artist - American Folk Blues Festival '63 (Part 1) [CD2] (V
DTITLE=anguard)
DYEAR=1900
DGENRE=Blues
TTITLE0=Memphis Slim - The Blues is Everywhere
TTITLE1=Memphis Slim - John Henry
TTITLE2=Memphis Slim - Wish Me Well
TTITLE3=Memphis Slim - Memphis Boogie
TTITLE4=Muddy Waters - My Captain
TTITLE5=Muddy Waters - Catfish Blues
TTITLE6=Muddy Waters - Blow Wind Blow
TTITLE7=Muddy Waters - My Home is In the Delta
TTITLE8=Muddy Waters - Five Long Years
TTITLE9=Sonny Boy Williamson - That's All I Want, Baby
TTITLE10=Sonny Boy Williamson - Don't Misuse Me
TTITLE11=Sonny Boy Williamson, O. Spann, W. Dixon, M. Murphy,B. Stepne
TTITLE11=y - I Don't Know
TTITLE12=Sonny Boy Williamson - I'm Gettin' Tired
TTITLE13=Otis Spann - Goin' Down Slow
TTITLE14=Sonny Boy Williamson - Sonny Boy's Harmonica Blues
EXTD=YEAR: 0
EXTT0=
EXTT1=
EXTT2=
EXTT3=
EXTT4=
EXTT5=
EXTT6=
EXTT7=
EXTT8=
EXTT9=
EXTT10=
EXTT11=
EXTT12=
EXTT13=
EXTT14=
PLAYORDER=
